<?xml version="1.0" standalone="no"?>
<!DOCTYPE svg PUBLIC "-//W3C//DTD SVG 20010904//EN"
 "http://www.w3.org/TR/2001/REC-SVG-20010904/DTD/svg10.dtd">
<svg version="1.0" xmlns="http://www.w3.org/2000/svg"
 width="32.000000pt" height="32.000000pt" viewBox="0 0 32.000000 32.000000"
 preserveAspectRatio="xMidYMid meet">

<g transform="translate(0.000000,32.000000) scale(0.100000,-0.100000)"
fill="#000000" stroke="none">
<path d="M93 300 c-75 -34 -108 -117 -78 -196 48 -126 222 -135 283 -14 28 56
28 84 0 140 -17 33 -35 51 -68 68 -54 27 -82 27 -137 2z m102 -36 c14 -9 25
-25 25 -36 0 -19 -1 -19 -30 -1 -29 17 -31 17 -60 0 -29 -18 -30 -18 -30 1 0
20 35 51 58 51 7 1 24 -6 37 -15z m-65 -113 c0 -52 8 -71 30 -71 22 0 30 19
30 71 0 28 4 39 15 39 12 0 15 -13 15 -58 0 -67 -11 -82 -60 -82 -49 0 -60 15
-60 82 0 45 3 58 15 58 11 0 15 -11 15 -39z"/>
</g>
</svg>
